<svg xmlns="http://www.w3.org/2000/svg" viewBox="0 0 420 420" role="img" aria-label="Decorative plant illustration">
  <rect width="420" height="420" rx="36" fill="#F3F8F4"/>
  <ellipse cx="210" cy="360" rx="124" ry="24" fill="#DDEEDD"/>
  <rect x="150" y="240" width="120" height="110" rx="20" fill="#46A358"/>
  <path d="M210 95c-40 10-70 50-56 125 31-6 54-20 68-42 14-22 15-48 10-83h-22Z" fill="#77D48B"/>
  <path d="M250 120c-34 7-58 39-47 95 25-4 43-15 54-32 11-17 12-36 8-63h-15Z" fill="#52B969"/>
  <path d="M168 140c26 6 44 31 36 78-19-3-33-12-41-26-8-14-9-30-6-52h11Z" fill="#5BC371"/>
</svg>
